<?xml version="1.0" encoding="utf-8"?>
<!-- Generator: Adobe Illustrator 22.0.1, SVG Export Plug-In . SVG Version: 6.00 Build 0)  -->
<svg version="1.1" id="Capa_1" xmlns="http://www.w3.org/2000/svg" xmlns:xlink="http://www.w3.org/1999/xlink" x="0px" y="0px"
	 viewBox="0 0 481 446" style="enable-background:new 0 0 481 446;" xml:space="preserve">
<style type="text/css">
	.st0{fill:#F76800;}
	.st1{fill:#FFFFFF;}
	.st2{fill:#FFB412;}
	.st3{fill:#0087EB;}
	.st4{fill:#00D6CA;}
</style>
<g>
	<g>
		<polygon class="st0" points="51.6,388.4 57.7,429 78.7,384.8 223.3,365.8 225.8,235.1 24.7,255.7 43.4,389.5 		"/>
		<g>
			<path class="st1" d="M119.8,318.9c2.5-3.6,6.1-7.5,10.7-11.5c3.9-3.6,6.7-6.6,8.5-9.1c1.7-2.5,2.4-5.6,1.9-9.1
				c-0.5-3.3-2.1-6-4.9-8c-2.8-2-6.5-3-11.1-3c-4.8,0-9,1-12.7,3.1c-3.7,2.1-6.7,5.1-9.1,9.1L85.7,278c3.6-6.6,8.9-11.7,16-15.4
				c7.1-3.7,15.4-5.6,25-5.6c10.6,0,19.3,2.4,26.2,7.3c6.9,4.9,11,11.5,12.1,19.8c0.7,5.1,0.4,9.4-0.8,13.1c-1.2,3.7-3,6.7-5.2,9.2
				c-2.2,2.5-5.1,5.3-8.6,8.4c-3.9,3.4-6.9,6.4-8.9,9c-2,2.5-3.1,5.5-3.3,9h-22.6C115.9,327.1,117.3,322.5,119.8,318.9z"/>
			<circle class="st1" cx="126.8" cy="352.5" r="12.6"/>
		</g>
	</g>
	<g>
		<path class="st2" d="M243.3,318.9l-5.4,28.8l32.7-16c53.9,18.5,113.6,5.3,130.3-30.9c26.1-56.5-11.2-107.8-76.9-115.6
			c-55.6-6.6-133.7,30.1-111.5,97.7C217.4,297.6,228.6,309.6,243.3,318.9z"/>
		<g>
			<path class="st1" d="M299.6,269.6c2.5-3.6,6.1-7.5,10.7-11.5c3.9-3.6,6.7-6.6,8.5-9.1c1.7-2.5,2.4-5.6,1.9-9.1
				c-0.5-3.3-2.1-6-4.9-8c-2.8-2-6.5-3-11.1-3c-4.8,0-9,1-12.7,3.1c-3.7,2.1-6.7,5.1-9.1,9.1l-17.4-12.4c3.6-6.6,8.9-11.7,16-15.4
				c7.1-3.7,15.4-5.6,25-5.6c10.6,0,19.3,2.4,26.2,7.3c6.9,4.9,11,11.5,12.1,19.8c0.7,5.1,0.4,9.4-0.8,13.1c-1.2,3.7-3,6.7-5.2,9.2
				c-2.2,2.5-5.1,5.3-8.6,8.4c-3.9,3.4-6.9,6.4-8.9,9c-2,2.5-3.1,5.5-3.3,9h-22.6C295.7,277.8,297.1,273.2,299.6,269.6z"/>
			<path class="st1" d="M319.2,303.2c0,7-5.6,12.6-12.6,12.6s-12.6-5.6-12.6-12.6c0-7,5.6-12.6,12.6-12.6S319.2,296.2,319.2,303.2z"
				/>
		</g>
	</g>
	<g>
		<path class="st3" d="M289.2,174l146.1,10c22-150,14.8-116.4,21.4-169L245.4,47.9l-4.2,122.8l21.2,1.4l8.8,32.1L289.2,174z"/>
		<g>
			<path class="st1" d="M333.3,109.4c2.5-3.6,6.1-7.5,10.7-11.5c3.9-3.6,6.7-6.6,8.5-9.1c1.7-2.5,2.4-5.6,1.9-9.1
				c-0.5-3.3-2.1-6-4.9-8c-2.8-2-6.5-3-11.1-3c-4.8,0-9,1-12.7,3.1c-3.7,2.1-6.7,5.1-9.1,9.1l-17.4-12.4c3.6-6.6,8.9-11.7,16-15.4
				s15.4-5.6,25-5.6c10.6,0,19.3,2.4,26.2,7.3c6.9,4.9,11,11.5,12.1,19.8c0.7,5.1,0.4,9.4-0.8,13.1c-1.2,3.7-3,6.7-5.2,9.2
				c-2.2,2.5-5.1,5.3-8.6,8.4c-3.9,3.4-6.9,6.4-8.9,9c-2,2.5-3.1,5.5-3.3,9h-22.6C329.5,117.6,330.8,113,333.3,109.4z"/>
			
				<ellipse transform="matrix(3.141185e-02 -0.9995 0.9995 3.141185e-02 186.8103 478.6815)" class="st1" cx="340.4" cy="143" rx="12.6" ry="12.6"/>
		</g>
	</g>
	<g>
		<path class="st4" d="M153.6,231.4c2.2-0.1,4.3-0.3,6.5-0.5l24,27.5l5.9-34.3c68.7-26,86.8-112.9,52.2-145.2
			C202,41.4,122,53.1,87.5,109.7C63,149.9,55.6,235.9,153.6,231.4z"/>
		<g>
			<path class="st1" d="M158.2,156.5c2.5-3.6,6.1-7.5,10.7-11.5c3.9-3.6,6.7-6.6,8.5-9.1c1.7-2.5,2.4-5.6,1.9-9.1
				c-0.5-3.3-2.1-6-4.9-8c-2.8-2-6.5-3-11.1-3c-4.8,0-9,1-12.7,3.1c-3.7,2.1-6.7,5.1-9.1,9.1l-17.4-12.4c3.6-6.6,8.9-11.7,16-15.4
				c7.1-3.7,15.4-5.6,25-5.6c10.6,0,19.3,2.4,26.2,7.3c6.9,4.9,11,11.5,12.1,19.8c0.7,5.1,0.4,9.4-0.8,13.1c-1.2,3.7-3,6.7-5.2,9.2
				c-2.2,2.5-5.1,5.3-8.6,8.4c-3.9,3.4-6.9,6.4-8.9,9c-2,2.5-3.1,5.5-3.3,9h-22.6C154.3,164.7,155.7,160.1,158.2,156.5z"/>
			<circle class="st1" cx="165.2" cy="190.1" r="12.6"/>
		</g>
	</g>
</g>
</svg>
